<svg id="visual" viewBox="0 0 960 540" width="960" height="540" xmlns="http://www.w3.org/2000/svg" xmlns:xlink="http://www.w3.org/1999/xlink" version="1.1"><rect x="0" y="0" width="960" height="540" fill="#fff"></rect><path d="M0 249L20 251.7C40 254.3 80 259.7 120 263.7C160 267.7 200 270.3 240 278.5C280 286.7 320 300.3 360 291.7C400 283 440 252 480 249.7C520 247.3 560 273.7 600 274.8C640 276 680 252 720 245.2C760 238.3 800 248.7 840 251.7C880 254.7 920 250.3 940 248.2L960 246L960 541L940 541C920 541 880 541 840 541C800 541 760 541 720 541C680 541 640 541 600 541C560 541 520 541 480 541C440 541 400 541 360 541C320 541 280 541 240 541C200 541 160 541 120 541C80 541 40 541 20 541L0 541Z" fill="#219ddb"></path><path d="M0 365L20 355.7C40 346.3 80 327.7 120 323C160 318.3 200 327.7 240 332.2C280 336.7 320 336.3 360 330.8C400 325.3 440 314.7 480 307.5C520 300.3 560 296.7 600 300.5C640 304.3 680 315.7 720 320C760 324.3 800 321.7 840 316.5C880 311.3 920 303.7 940 299.8L960 296L960 541L940 541C920 541 880 541 840 541C800 541 760 541 720 541C680 541 640 541 600 541C560 541 520 541 480 541C440 541 400 541 360 541C320 541 280 541 240 541C200 541 160 541 120 541C80 541 40 541 20 541L0 541Z" fill="#2379b2"></path><path d="M0 432L20 421C40 410 80 388 120 378.8C160 369.7 200 373.3 240 373C280 372.7 320 368.3 360 370.8C400 373.3 440 382.7 480 393.5C520 404.3 560 416.7 600 415.5C640 414.3 680 399.7 720 394.8C760 390 800 395 840 400.5C880 406 920 412 940 415L960 418L960 541L940 541C920 541 880 541 840 541C800 541 760 541 720 541C680 541 640 541 600 541C560 541 520 541 480 541C440 541 400 541 360 541C320 541 280 541 240 541C200 541 160 541 120 541C80 541 40 541 20 541L0 541Z" fill="#1e5889"></path><path d="M0 447L20 451.7C40 456.3 80 465.7 120 464.2C160 462.7 200 450.3 240 450.3C280 450.3 320 462.7 360 469.8C400 477 440 479 480 479.7C520 480.3 560 479.7 600 474.2C640 468.7 680 458.3 720 451.7C760 445 800 442 840 445C880 448 920 457 940 461.5L960 466L960 541L940 541C920 541 880 541 840 541C800 541 760 541 720 541C680 541 640 541 600 541C560 541 520 541 480 541C440 541 400 541 360 541C320 541 280 541 240 541C200 541 160 541 120 541C80 541 40 541 20 541L0 541Z" fill="#153962"></path></svg>