<svg xmlns="http://www.w3.org/2000/svg" xmlns:xlink="http://www.w3.org/1999/xlink" width="1400" zoomAndPan="magnify" viewBox="0 0 1050 1049.999947" height="1400" preserveAspectRatio="xMidYMid meet" version="1.0"><defs><clipPath id="7173c6046e"><path d="M 132 0 L 1050 0 L 1050 1050 L 132 1050 Z M 132 0 " clip-rule="nonzero"/></clipPath><clipPath id="260aac5eb1"><path d="M 1054.09375 -77.546875 L 1089.867188 -49.527344 L 167.726562 1127.664062 L 131.957031 1099.644531 Z M 1054.09375 -77.546875 " clip-rule="nonzero"/></clipPath><clipPath id="cdb95ea124"><path d="M 1054.09375 -77.546875 L 1089.867188 -49.527344 L 167.816406 1127.546875 L 132.046875 1099.527344 Z M 1054.09375 -77.546875 " clip-rule="nonzero"/></clipPath><clipPath id="c06fbbb502"><path d="M 1054.09375 -150.503906 L 1089.863281 -122.484375 L 35.722656 1223.214844 L -0.046875 1195.195312 Z M 1054.09375 -150.503906 " clip-rule="nonzero"/></clipPath><clipPath id="3b120708ee"><path d="M 1054.09375 -150.503906 L 1089.863281 -122.484375 L 35.765625 1223.160156 L -0.00390625 1195.140625 Z M 1054.09375 -150.503906 " clip-rule="nonzero"/></clipPath><clipPath id="baeaf59c5b"><path d="M 0 0 L 918 0 L 918 1050 L 0 1050 Z M 0 0 " clip-rule="nonzero"/></clipPath><clipPath id="400d834cdd"><path d="M 882.183594 -77.546875 L 917.953125 -49.527344 L -4.1875 1127.664062 L -39.957031 1099.644531 Z M 882.183594 -77.546875 " clip-rule="nonzero"/></clipPath><clipPath id="d9305b1a5a"><path d="M 882.183594 -77.546875 L 917.953125 -49.527344 L -4.097656 1127.546875 L -39.867188 1099.527344 Z M 882.183594 -77.546875 " clip-rule="nonzero"/></clipPath></defs><g clip-path="url(#7173c6046e)"><g clip-path="url(#260aac5eb1)"><g clip-path="url(#cdb95ea124)"><path fill="#38b6ff" d="M 1054.09375 -77.546875 L 1089.863281 -49.527344 L 167.835938 1127.523438 L 132.066406 1099.503906 Z M 1054.09375 -77.546875 " fill-opacity="1" fill-rule="nonzero"/></g></g></g><g clip-path="url(#c06fbbb502)"><g clip-path="url(#3b120708ee)"><path fill="#153962" d="M 1054.09375 -150.503906 L 1089.863281 -122.484375 L 35.722656 1223.214844 L -0.046875 1195.195312 Z M 1054.09375 -150.503906 " fill-opacity="1" fill-rule="nonzero"/></g></g><g clip-path="url(#baeaf59c5b)"><g clip-path="url(#400d834cdd)"><g clip-path="url(#d9305b1a5a)"><path fill="#d41411" d="M 882.183594 -77.546875 L 917.953125 -49.527344 L -4.078125 1127.523438 L -39.847656 1099.503906 Z M 882.183594 -77.546875 " fill-opacity="1" fill-rule="nonzero"/></g></g></g></svg>