<svg xmlns="http://www.w3.org/2000/svg" width="1700" zoomAndPan="magnify" viewBox="0 0 1275 899.99999" height="1200"
     preserveAspectRatio="xMidYMid meet" version="1.0"><defs><clipPath id="2effc6a292"><path d="M 337 0 L 1275 0 L 1275 900 L 337 900 Z M 337 0 " clip-rule="nonzero"/></clipPath><clipPath id="a2e18bea0f"><path d="M 1186.554688 -88.761719 L 1274.996094 -19.480469 L 426.054688 1064.265625 L 337.613281 994.984375 Z M 1186.554688 -88.761719 " clip-rule="nonzero"/></clipPath><clipPath id="d6324341d1"><path d="M 1186.554688 -88.761719 L 1274.996094 -19.480469 L 426.3125 1063.9375 L 337.871094 994.660156 Z M 1186.554688 -88.761719 " clip-rule="nonzero"/></clipPath><clipPath id="c4258803bd"><path d="M 90 0 L 1149 0 L 1149 900 L 90 900 Z M 90 0 " clip-rule="nonzero"/></clipPath><clipPath id="503d41a876"><path d="M 1058.878906 -108.566406 L 1148.367188 -38.464844 L 179.265625 1198.679688 L 89.773438 1128.578125 Z M 1058.878906 -108.566406 " clip-rule="nonzero"/></clipPath><clipPath id="5fa9be29f2"><path d="M 1058.878906 -108.566406 L 1148.367188 -38.464844 L 179.488281 1198.394531 L 90 1128.292969 Z M 1058.878906 -108.566406 " clip-rule="nonzero"/></clipPath><clipPath id="af8b2279f7"><path d="M 0 0 L 904 0 L 904 900 L 0 900 Z M 0 0 " clip-rule="nonzero"/></clipPath><clipPath id="efdc9a40f1"><path d="M 814.777344 -142.996094 L 903.257812 -73.683594 L 54.472656 1009.863281 L -34.007812 940.550781 Z M 814.777344 -142.996094 " clip-rule="nonzero"/></clipPath><clipPath id="4330e43703"><path d="M 814.777344 -142.996094 L 903.257812 -73.683594 L 54.542969 1009.769531 L -33.9375 940.460938 Z M 814.777344 -142.996094 " clip-rule="nonzero"/></clipPath></defs><g clip-path="url(#2effc6a292)"><g clip-path="url(#a2e18bea0f)"><g clip-path="url(#d6324341d1)"><path fill="#38b6ff" d="M 1186.554688 -88.761719 L 1274.996094 -19.480469 L 426.324219 1063.917969 L 337.882812 994.640625 Z M 1186.554688 -88.761719 " fill-opacity="1" fill-rule="nonzero"/></g></g></g><g clip-path="url(#c4258803bd)"><g clip-path="url(#503d41a876)"><g clip-path="url(#5fa9be29f2)"><path fill="#153962" d="M 1058.878906 -108.566406 L 1148.367188 -38.464844 L 179.539062 1198.332031 L 90.046875 1128.230469 Z M 1058.878906 -108.566406 " fill-opacity="1" fill-rule="nonzero"/></g></g></g><g clip-path="url(#af8b2279f7)"><g clip-path="url(#efdc9a40f1)"><g clip-path="url(#4330e43703)"><path fill="#d41411" d="M 814.777344 -142.996094 L 903.257812 -73.683594 L 54.472656 1009.863281 L -34.007812 940.550781 Z M 814.777344 -142.996094 " fill-opacity="1" fill-rule="nonzero"/></g></g></g></svg>