<svg id="visual" viewBox="0 0 960 540" width="960" height="540" xmlns="http://www.w3.org/2000/svg" xmlns:xlink="http://www.w3.org/1999/xlink" version="1.1"><rect x="0" y="0" width="960" height="540" fill="#219ddb"></rect><path d="M0 247L22.8 262.5C45.7 278 91.3 309 137 305C182.7 301 228.3 262 274 262.3C319.7 262.7 365.3 302.3 411.2 321C457 339.7 503 337.3 548.8 323.8C594.7 310.3 640.3 285.7 686 263C731.7 240.3 777.3 219.7 823 222C868.7 224.3 914.3 249.7 937.2 262.3L960 275L960 541L937.2 541C914.3 541 868.7 541 823 541C777.3 541 731.7 541 686 541C640.3 541 594.7 541 548.8 541C503 541 457 541 411.2 541C365.3 541 319.7 541 274 541C228.3 541 182.7 541 137 541C91.3 541 45.7 541 22.8 541L0 541Z" fill="#153962" stroke-linecap="round" stroke-linejoin="miter"></path></svg>