<?xml version="1.0" encoding="utf-8"?>
<!-- Generator: Adobe Illustrator 16.0.0, SVG Export Plug-In . SVG Version: 6.00 Build 0)  -->
<!DOCTYPE svg PUBLIC "-//W3C//DTD SVG 1.1//EN" "http://www.w3.org/Graphics/SVG/1.1/DTD/svg11.dtd">
<svg version="1.1" id="Layer_02" xmlns="http://www.w3.org/2000/svg" xmlns:xlink="http://www.w3.org/1999/xlink" x="0px" y="0px"
	 width="816px" height="117.333px" viewBox="0 0 816 117.333" enable-background="new 0 0 816 117.333" xml:space="preserve">
<path fill="#153A62" d="M181.832,33.327c3.766,0.102,7.444,0.212,11.106,0.321c-0.24-5.206-0.48-10.409-0.718-15.615
	c-0.457-0.003-0.913-0.007-1.374-0.007c-3.846-0.01-7.899,0.054-12.006,0.462c-3.417,0.339-6.871,0.919-10.112,1.733
	c-1.198-1.195-2.393-2.392-3.591-3.587c2.789-0.205,5.375-0.381,7.865-0.543c10.269-0.677,18.91-1.165,26.781-0.694
	c7.87,0.472,14.968,1.902,21.786,4.563c9.259,3.613,17.998,9.497,27.075,14.065c4.83-0.163,8.667,0.582,12.908,1.294
	c6.606,1.106,14.193,2.128,19.207,5.734c0.834,0.601,1.597,1.272,2.282,2.013c-3.172-1.7-10.28-2.88-11.579-2.76
	c-0.651,0.013-0.834,0.292-0.471,1.183c1.674,2.583,7.424,4.993,11.837,6.872c2.187,0.778,3.181,0.96,3.625,1.009
	c0.424,1.619,0.624,3.391,0.568,5.31c138.193,0,276.384,0,414.579,0c-2.632,2.628-5.262,5.26-7.89,7.889
	c-135.563,0-271.126,0-406.689,0c0.173,6.077-2.2,10.701-6.262,14.029c-5.014,4.104-12.601,6.235-20.712,8.991
	c-3.577,1.215-7.258,2.551-10.699,3.798c8.94-8.939,17.88-17.878,26.82-26.818c-1.316,0-2.631,0-3.945,0
	c-11.927,10.45-23.856,20.904-35.783,31.355c-5.017,1.666-9.558,3.014-14.562,4.269c11.875-11.875,23.75-23.749,35.623-35.624
	c-1.314,0-2.629,0-3.944,0c-14.501,12.707-29.002,25.412-43.502,38.119c-3.262,0.535-6.687,0.946-10.271,1.162
	c-2.359,0.142-4.787,0.196-7.307,0.186c13.154-13.155,26.31-26.312,39.466-39.467c-1.313,0-2.628,0-3.943,0
	c-14.912,13.066-29.823,26.133-44.733,39.197c-3.246-0.158-6.655-0.372-10.264-0.608c-2.333-0.154-4.748-0.317-7.335-0.505
	c12.694-12.694,25.39-25.39,38.083-38.084c-1.315,0-2.629,0-3.944,0c-14.23,12.47-28.461,24.939-42.691,37.41
	c-2.581-0.222-5.353-0.47-8.367-0.762c12.217-12.216,24.433-24.432,36.649-36.648c-1.315,0-2.63,0-3.945,0
	C167.827,74.51,154.2,86.448,140.574,98.39c-5.07-0.535-10.759-1.176-17.237-1.95c11.289-11.292,22.58-22.58,33.869-33.871
	c-1.314,0-2.629,0-3.945,0c-12.528,10.979-25.056,21.956-37.585,32.935c-3.782-0.47-7.808-0.983-12.104-1.54
	c10.466-10.466,20.931-20.929,31.395-31.395c-1.315,0-2.629,0-3.945,0c-11.577,10.145-23.153,20.291-34.732,30.436
	c-5.275-0.703-10.924-1.469-16.984-2.308c9.377-9.377,18.753-18.751,28.13-28.128c-8.095,0-16.187,0-24.28,0
	c2.63-2.629,5.26-5.261,7.888-7.889c5.261,0,10.521,0,15.78,0c-9.35-9.352-18.703-18.703-28.054-28.055
	c3.539-0.49,6.937-0.955,10.204-1.398c11.414,9.817,22.826,19.636,34.239,29.454c1.314,0,2.629,0,3.944,0
	c-10.16-10.163-20.323-20.326-30.486-30.486c3.468-0.461,6.772-0.894,9.927-1.299c12.316,10.595,24.633,21.19,36.951,31.786
	c1.313,0,2.628,0,3.942,0c-10.937-10.938-21.874-21.875-32.811-32.812c5.646-0.704,10.757-1.318,15.418-1.866
	c13.308,11.559,26.616,23.118,39.925,34.678c1.314,0,2.629,0,3.944,0c-7.332-7.332-14.663-14.665-21.995-21.997
	c2.253,0.175,6.071,0.201,9.729,0.242c4.536,0.051,8.829,0.13,12.968,0.224c8.19,7.178,16.381,14.353,24.572,21.531
	c1.314,0,2.629,0,3.944,0C196.066,47.561,188.95,40.445,181.832,33.327z"/>
<polygon fill="#153A62" points="725.267,62.568 733.158,62.568 741.046,54.68 733.158,54.68 "/>
<polygon fill="#153A62" points="717.377,62.568 701.601,62.568 709.49,54.68 725.267,54.68 "/>
<polygon fill="#153A62" points="75.265,62.568 59.487,62.568 67.375,54.68 83.154,54.68 "/>
<path fill="#153A62" d="M241.317,54.68c3.743-6.644,9.613-7.448,15.241-7.028c5.143,0.385,10.084,1.793,13.01,7.028
	C260.151,54.68,250.734,54.68,241.317,54.68z"/>
<path fill="#153A62" d="M138.378,19.092c3.065,3.063,6.129,6.127,9.193,9.192c6.662-2.79,10.975-4.66,14.67-6.026
	c-1.882-1.648-3.763-3.296-5.644-4.944C151.425,17.758,145.492,18.324,138.378,19.092z"/>
<path fill="#FFFFFF" d="M234.544,35.342c-1.241-0.063-2.479-0.126-3.718-0.189c-8.772-0.437-16.134-0.716-24.312-1.047
	c-2.515-0.101-5.107-0.207-7.663-0.282c-0.01,0-0.02,0-0.027,0c-0.972-5.246-1.941-10.49-2.912-15.735
	c2.073,0.049,4.142,0.126,6.282,0.244c3.862,0.211,7.952,0.552,12.125,1.789c4.173,1.238,8.428,3.372,12.544,5.644
	c4.222,2.333,8.297,4.811,13.392,7.836c0.455,0.271,0.92,0.547,1.175,0.903c0.247,0.346,0.292,0.768,0.047,0.975
	c-0.272,0.229-0.904,0.193-1.53,0.157C238.076,35.531,236.279,35.432,234.544,35.342z"/>
<g>
	<path fill="#003863" d="M392.381,34.639h-10.015l-2.795,4.608h-5.315l13.917-21.504h4.916l5.284,21.504h-4.977L392.381,34.639z
		 M391.551,30.86l-1.813-8.295l-5.069,8.295H391.551z"/>
	<path fill="#003863" d="M404.392,37.604c-1.536-1.341-2.304-3.18-2.304-5.515c0-0.676,0.082-1.444,0.246-2.304l2.396-12.042h5.008
		l-2.396,11.95c-0.123,0.676-0.184,1.28-0.184,1.813c0,1.291,0.353,2.258,1.06,2.903c0.707,0.645,1.736,0.968,3.087,0.968
		c1.516,0,2.724-0.451,3.625-1.352c0.901-0.901,1.556-2.345,1.966-4.332l2.396-11.95h4.884L421.75,30
		c-1.311,6.411-4.977,9.616-10.998,9.616C408.048,39.616,405.928,38.945,404.392,37.604z"/>
	<path fill="#003863" d="M432.748,21.798h-6.881l0.828-4.055h18.74l-0.829,4.055h-6.851l-3.502,17.449h-4.978L432.748,21.798z"/>
	<path fill="#003863" d="M449.367,38.448c-1.576-0.778-2.785-1.874-3.625-3.287s-1.259-3.042-1.259-4.885
		c0-2.437,0.558-4.633,1.675-6.589c1.115-1.956,2.682-3.497,4.699-4.624c2.018-1.126,4.326-1.689,6.928-1.689
		c2.15,0,4.014,0.389,5.592,1.167c1.576,0.779,2.785,1.874,3.625,3.287c0.84,1.414,1.26,3.042,1.26,4.885
		c0,2.438-0.559,4.634-1.675,6.59c-1.116,1.956-2.683,3.497-4.7,4.624s-4.327,1.689-6.928,1.689
		C452.808,39.616,450.945,39.227,449.367,38.448z M459.537,34.24c1.188-0.758,2.099-1.771,2.733-3.042
		c0.635-1.27,0.952-2.673,0.952-4.209c0-1.638-0.512-2.944-1.535-3.917c-1.025-0.973-2.469-1.459-4.332-1.459
		c-1.578,0-2.96,0.379-4.147,1.137c-1.188,0.758-2.1,1.771-2.734,3.042s-0.952,2.672-0.952,4.208c0,1.639,0.512,2.944,1.536,3.917
		c1.024,0.973,2.468,1.459,4.331,1.459C456.965,35.376,458.348,34.998,459.537,34.24z"/>
	<path fill="#003863" d="M470.902,28.679h8.695l-0.769,3.84h-8.694L470.902,28.679z"/>
	<path fill="#003863" d="M505.617,17.743l-4.301,21.504h-4.977l1.751-8.755h-9.739l-1.75,8.755h-5.008l4.301-21.504h5.008
		l-1.689,8.448h9.738l1.689-8.448H505.617z"/>
	<path fill="#003863" d="M521.714,34.639h-10.016l-2.795,4.608h-5.314l13.916-21.504h4.916l5.283,21.504h-4.977L521.714,34.639z
		 M520.884,30.86l-1.813-8.295l-5.068,8.295H520.884z"/>
	<path fill="#003863" d="M553.97,17.743l-4.301,21.504h-4.086l-8.018-13.456l-2.703,13.456h-4.916l4.301-21.504h4.117l8.018,13.486
		l2.674-13.486H553.97z"/>
	<path fill="#003863" d="M559.07,17.743h9.002c2.191,0,4.08,0.364,5.668,1.09c1.586,0.727,2.805,1.767,3.655,3.118
		c0.85,1.352,1.274,2.939,1.274,4.762c0,2.499-0.563,4.696-1.689,6.59c-1.126,1.895-2.698,3.359-4.715,4.393
		c-2.018,1.034-4.348,1.551-6.989,1.551h-10.507L559.07,17.743z M565.429,35.161c1.68,0,3.139-0.353,4.378-1.06
		c1.239-0.707,2.187-1.679,2.842-2.919c0.655-1.239,0.983-2.637,0.983-4.193c0-1.618-0.522-2.882-1.567-3.794
		c-1.044-0.911-2.56-1.367-4.546-1.367h-4.271l-2.672,13.333H565.429z"/>
	<path fill="#003863" d="M588.593,21.736l-0.922,4.669h9.984l-0.769,3.871h-10.015l-0.983,4.977h11.735l-0.83,3.994h-16.65
		l4.301-21.504h16.252l-0.83,3.994H588.593z"/>
	<path fill="#003863" d="M605.058,17.743h5.008l-3.502,17.449h10.783l-0.83,4.055h-15.76L605.058,17.743z"/>
	<path fill="#003863" d="M341.432,90.837c-1.086,1.434-2.591,2.447-4.516,3.041l3.748,6.637h-5.253l-3.379-6.021h-4.239
		l-1.198,6.021h-5.007l4.301-21.505h8.755c2.662,0,4.731,0.583,6.206,1.751s2.212,2.807,2.212,4.915
		C343.06,87.684,342.517,89.403,341.432,90.837z M336.655,89.394c0.911-0.758,1.367-1.844,1.367-3.257
		c0-1.024-0.349-1.792-1.044-2.304c-0.697-0.512-1.69-0.768-2.98-0.768h-3.933l-1.505,7.465h4.239
		C334.458,90.53,335.743,90.151,336.655,89.394z"/>
	<path fill="#003863" d="M349.726,99.716c-1.577-0.778-2.785-1.875-3.625-3.287c-0.84-1.414-1.259-3.042-1.259-4.885
		c0-2.438,0.558-4.634,1.674-6.59c1.116-1.955,2.683-3.497,4.7-4.623c2.017-1.127,4.326-1.689,6.928-1.689
		c2.15,0,4.014,0.389,5.591,1.166c1.577,0.779,2.785,1.875,3.625,3.287c0.84,1.414,1.26,3.042,1.26,4.885
		c0,2.438-0.558,4.635-1.674,6.59c-1.117,1.957-2.683,3.498-4.7,4.624c-2.018,1.126-4.327,1.689-6.928,1.689
		C353.167,100.883,351.303,100.494,349.726,99.716z M359.895,95.507c1.188-0.758,2.099-1.771,2.734-3.041s0.953-2.674,0.953-4.209
		c0-1.639-0.512-2.944-1.536-3.917c-1.024-0.973-2.468-1.46-4.332-1.46c-1.578,0-2.96,0.38-4.147,1.137
		c-1.188,0.758-2.1,1.771-2.734,3.042s-0.952,2.673-0.952,4.208c0,1.639,0.512,2.945,1.536,3.918
		c1.024,0.973,2.468,1.459,4.332,1.459C357.324,96.644,358.707,96.265,359.895,95.507z"/>
	<path fill="#003863" d="M390.293,91.067c0.501,0.728,0.753,1.613,0.753,2.657c0,2.233-0.881,3.923-2.642,5.069
		c-1.762,1.146-4.106,1.721-7.035,1.721h-11.274l4.301-21.505h10.384c2.314,0,4.096,0.425,5.345,1.274
		c1.249,0.851,1.874,2.064,1.874,3.641c0,1.311-0.343,2.432-1.029,3.364c-0.687,0.933-1.624,1.644-2.811,2.135
		C389.08,89.792,389.791,90.341,390.293,91.067z M384.932,95.968c0.778-0.533,1.167-1.301,1.167-2.305
		c0-1.475-1.075-2.211-3.226-2.211h-6.021l-1.044,5.314h5.868C383.068,96.767,384.154,96.501,384.932,95.968z M378.573,82.757
		l-1.014,5.07h5.069c1.311,0,2.33-0.262,3.057-0.784c0.727-0.522,1.09-1.274,1.09-2.258c0-1.352-1.055-2.028-3.164-2.028H378.573z"
		/>
	<path fill="#003863" d="M402.044,83.003l-0.922,4.67h9.984l-0.768,3.871h-10.015l-0.983,4.977h11.735l-0.83,3.994h-16.65
		l4.301-21.505h16.251l-0.83,3.993H402.044z"/>
	<path fill="#003863" d="M434.054,90.837c-1.086,1.434-2.591,2.447-4.516,3.041l3.748,6.637h-5.254l-3.379-6.021h-4.239
		l-1.198,6.021h-5.007l4.301-21.505h8.755c2.662,0,4.73,0.583,6.205,1.751s2.213,2.807,2.213,4.915
		C435.683,87.684,435.14,89.403,434.054,90.837z M429.277,89.394c0.912-0.758,1.367-1.844,1.367-3.257
		c0-1.024-0.348-1.792-1.044-2.304s-1.69-0.768-2.979-0.768h-3.933l-1.505,7.465h4.239C427.082,90.53,428.366,90.151,429.277,89.394
		z"/>
	<path fill="#003863" d="M444.714,83.065h-6.881l0.828-4.056h18.74l-0.829,4.056h-6.851l-3.502,17.449h-4.978L444.714,83.065z"/>
	<path fill="#003863" d="M467.079,100.207c-1.557-0.45-2.806-1.024-3.747-1.72l2.027-3.841c0.982,0.718,2.088,1.271,3.317,1.659
		s2.488,0.584,3.778,0.584c1.372,0,2.458-0.226,3.257-0.676c0.799-0.451,1.198-1.065,1.198-1.844c0-0.635-0.318-1.121-0.953-1.459
		s-1.648-0.701-3.041-1.091c-1.393-0.409-2.529-0.804-3.41-1.183s-1.643-0.947-2.288-1.705s-0.968-1.762-0.968-3.011
		c0-1.454,0.404-2.734,1.213-3.841c0.809-1.105,1.956-1.955,3.441-2.549c1.484-0.594,3.21-0.891,5.176-0.891
		c1.455,0,2.826,0.158,4.117,0.476c1.29,0.317,2.396,0.773,3.318,1.367l-1.875,3.81c-0.799-0.553-1.699-0.969-2.703-1.244
		c-1.004-0.277-2.049-0.415-3.133-0.415c-1.414,0-2.53,0.245-3.35,0.737c-0.818,0.491-1.229,1.127-1.229,1.904
		c0,0.472,0.174,0.865,0.522,1.184c0.348,0.317,0.788,0.573,1.321,0.768c0.531,0.195,1.279,0.426,2.242,0.691
		c1.372,0.368,2.498,0.742,3.379,1.121s1.633,0.932,2.258,1.658c0.625,0.729,0.938,1.686,0.938,2.873c0,1.475-0.41,2.76-1.229,3.855
		c-0.82,1.096-1.977,1.945-3.472,2.55s-3.236,0.906-5.223,0.906C470.263,100.883,468.635,100.657,467.079,100.207z"/>
	<path fill="#003863" d="M491.994,83.065h-6.882l0.829-4.056h18.74l-0.83,4.056H497l-3.502,17.449h-4.978L491.994,83.065z"/>
	<path fill="#003863" d="M522.898,90.837c-1.086,1.434-2.591,2.447-4.516,3.041l3.748,6.637h-5.254l-3.379-6.021h-4.239
		l-1.198,6.021h-5.008l4.301-21.505h8.756c2.662,0,4.73,0.583,6.205,1.751s2.213,2.807,2.213,4.915
		C524.527,87.684,523.984,89.403,522.898,90.837z M518.121,89.394c0.912-0.758,1.367-1.844,1.367-3.257
		c0-1.024-0.348-1.792-1.044-2.304s-1.69-0.768-2.979-0.768h-3.934l-1.504,7.465h4.238C515.925,90.53,517.209,90.151,518.121,89.394
		z"/>
	<path fill="#003863" d="M546.277,82.235l-14.47,14.224h12.042l-0.829,4.056h-18.802l0.646-3.227l14.5-14.223h-11.336l0.829-4.056
		h18.063L546.277,82.235z"/>
	<path fill="#003863" d="M554.694,83.003l-0.922,4.67h9.984l-0.769,3.871h-10.015l-0.983,4.977h11.736l-0.83,3.994h-16.65
		l4.301-21.505h16.252l-0.83,3.993H554.694z"/>
	<path fill="#003863" d="M571.16,79.01h5.008l-3.502,17.449h10.782l-0.829,4.056h-15.76L571.16,79.01z"/>
	<path fill="#003863" d="M591.082,99.716c-1.607-0.778-2.842-1.875-3.701-3.287c-0.86-1.414-1.291-3.042-1.291-4.885
		c0-2.438,0.559-4.634,1.675-6.59c1.116-1.955,2.688-3.497,4.716-4.623c2.027-1.127,4.352-1.689,6.973-1.689
		c1.926,0,3.625,0.327,5.1,0.982c1.475,0.656,2.592,1.598,3.35,2.826l-3.595,2.949c-1.147-1.68-2.878-2.52-5.192-2.52
		c-1.576,0-2.969,0.369-4.178,1.106s-2.146,1.741-2.811,3.011c-0.666,1.27-0.998,2.684-0.998,4.239c0,1.659,0.526,2.976,1.582,3.948
		c1.055,0.973,2.534,1.459,4.439,1.459c2.272,0,4.178-0.83,5.713-2.488l2.949,3.01c-2.13,2.479-5.16,3.718-9.093,3.718
		C594.569,100.883,592.689,100.494,591.082,99.716z"/>
	<path fill="#003863" d="M628.576,82.235l-14.469,14.224h12.043l-0.83,4.056h-18.801l0.645-3.227l14.5-14.223h-11.336l0.83-4.056
		h18.064L628.576,82.235z"/>
	<path fill="#003863" d="M643.844,95.906H633.83l-2.796,4.608h-5.315l13.917-21.505h4.915l5.285,21.505h-4.978L643.844,95.906z
		 M643.015,92.128l-1.813-8.295l-5.069,8.295H643.015z"/>
	<path fill="#003863" d="M665.226,88.963l7.465,11.552h-5.592l-5.529-8.418l-3.472,3.072l-1.075,5.346h-4.945l4.301-21.505h4.945
		l-1.966,9.861l11.151-9.861h6.021L665.226,88.963z"/>
</g>
</svg>
